<svg width="20" height="21" viewBox="0 0 20 21" fill="none" xmlns="http://www.w3.org/2000/svg">
<path d="M10 12.167C10.2189 12.167 10.4357 12.1239 10.6379 12.0401C10.8402 11.9563 11.024 11.8336 11.1788 11.6788C11.3336 11.524 11.4563 11.3402 11.5401 11.1379C11.6239 10.9357 11.667 10.7189 11.667 10.5C11.667 10.2811 11.6239 10.0643 11.5401 9.86207C11.4563 9.65982 11.3336 9.47606 11.1788 9.32126C11.024 9.16647 10.8402 9.04368 10.6379 8.9599C10.4357 8.87613 10.2189 8.83301 10 8.83301C9.55789 8.83301 9.13388 9.00864 8.82126 9.32126C8.50864 9.63388 8.33301 10.0579 8.33301 10.5C8.33301 10.9421 8.50864 11.3661 8.82126 11.6788C9.13388 11.9914 9.55789 12.167 10 12.167Z" stroke="#1125D6" stroke-width="1.25" stroke-linecap="round" stroke-linejoin="round"/>
<path d="M17.5 10.5C15.926 12.992 13.098 15.5 10 15.5C6.902 15.5 4.074 12.992 2.5 10.5C4.416 8.132 6.66 5.5 10 5.5C13.34 5.5 15.584 8.132 17.5 10.5Z" stroke="#1125D6" stroke-width="1.25" stroke-linecap="round" stroke-linejoin="round"/>
</svg>
