<svg width="20" height="21" viewBox="0 0 20 21" fill="none" xmlns="http://www.w3.org/2000/svg">
<path d="M5.83298 12.167C5.46917 12.1675 5.10984 12.2474 4.7801 12.4011C4.45035 12.5548 4.15813 12.7787 3.92384 13.057C3.68954 13.3354 3.51882 13.6615 3.42359 14.0126C3.32836 14.3637 3.31091 14.7314 3.37247 15.09C3.43403 15.4486 3.57311 15.7894 3.78 16.0886C3.98689 16.3879 4.2566 16.6384 4.57031 16.8227C4.88402 17.0069 5.23416 17.1205 5.5963 17.1554C5.95843 17.1904 6.32383 17.1459 6.66698 17.025" stroke="#FFB21E" stroke-width="1.25" stroke-linecap="round" stroke-linejoin="round"/>
<path d="M3.55299 13.504C3.05425 13.264 2.62315 12.9035 2.2986 12.4551C1.97406 12.0067 1.76628 11.4846 1.69404 10.9358C1.6218 10.387 1.68736 9.82892 1.88481 9.31183C2.08226 8.79474 2.40537 8.33496 2.82499 7.97401M2.84999 7.90701C2.57591 7.49813 2.45548 7.0054 2.51006 6.51619C2.56464 6.02699 2.79071 5.57292 3.14818 5.23451C3.50564 4.89609 3.9714 4.69521 4.46286 4.66748C4.95432 4.63975 5.43973 4.78696 5.83299 5.08301M6.03199 5.13701C5.89919 4.85458 5.83155 4.54593 5.83406 4.23385C5.83658 3.92177 5.90918 3.61424 6.04652 3.33399C6.18386 3.05374 6.38242 2.80794 6.62752 2.61474C6.87262 2.42154 7.158 2.28589 7.46258 2.2178C7.76715 2.14972 8.08313 2.15095 8.38717 2.22139C8.6912 2.29184 8.97553 2.4297 9.21912 2.62479C9.46272 2.81989 9.65936 3.06723 9.79452 3.34853C9.92968 3.62984 9.9999 3.93792 9.99999 4.25001V17.167C9.98934 17.6019 9.80908 18.0154 9.49772 18.3193C9.18635 18.6231 8.76854 18.7932 8.33349 18.7932C7.89845 18.7932 7.48064 18.6231 7.16927 18.3193C6.8579 18.0154 6.67765 17.6019 6.66699 17.167M9.99999 6.33301C9.99999 6.99605 10.2634 7.63194 10.7322 8.10078C11.2011 8.56962 11.837 8.83301 12.5 8.83301M14.167 12.167C14.5308 12.1675 14.8901 12.2474 15.2199 12.4011C15.5496 12.5549 15.8418 12.7787 16.0761 13.057C16.3104 13.3354 16.4812 13.6615 16.5764 14.0126C16.6716 14.3637 16.6891 14.7314 16.6275 15.09C16.5659 15.4486 16.4269 15.7894 16.22 16.0887C16.0131 16.3879 15.7434 16.6384 15.4297 16.8227C15.116 17.0069 14.7658 17.1205 14.4037 17.1554C14.0415 17.1904 13.6761 17.1459 13.333 17.025" stroke="#FFB21E" stroke-width="1.25" stroke-linecap="round" stroke-linejoin="round"/>
<path d="M16.447 13.504C16.9455 13.2638 17.3764 12.9032 17.7008 12.4548C18.0252 12.0065 18.2329 11.4844 18.3051 10.9357C18.3774 10.387 18.3119 9.829 18.1146 9.31195C17.9173 8.7949 17.5944 8.3351 17.175 7.97401M17.15 7.90701C17.4241 7.49814 17.5445 7.0054 17.4899 6.5162C17.4353 6.02699 17.2093 5.57292 16.8518 5.23451C16.4944 4.8961 16.0286 4.69521 15.5371 4.66748C15.0457 4.63975 14.5603 4.78696 14.167 5.08301M10 4.25001C10.0003 3.93791 10.0707 3.62987 10.206 3.34861C10.3412 3.06734 10.5379 2.82003 10.7815 2.62491C11.0251 2.42979 11.3094 2.29184 11.6134 2.22125C11.9174 2.15065 12.2334 2.1492 12.538 2.21701C12.8425 2.28531 13.1278 2.42113 13.3728 2.61444C13.6178 2.80776 13.8163 3.05364 13.9536 3.33392C14.0908 3.61421 14.1634 3.92174 14.1659 4.23383C14.1684 4.54591 14.1008 4.85457 13.968 5.13701M13.333 17.167C13.3223 17.6019 13.1421 18.0154 12.8307 18.3193C12.5194 18.6231 12.1015 18.7932 11.6665 18.7932C11.2315 18.7932 10.8136 18.6231 10.5023 18.3193C10.1909 18.0154 10.0107 17.6019 10 17.167" stroke="#FFB21E" stroke-width="1.25" stroke-linecap="round" stroke-linejoin="round"/>
</svg>
