<svg width="20" height="21" viewBox="0 0 20 21" fill="none" xmlns="http://www.w3.org/2000/svg">
<path d="M7.49999 10.5H12.5M9.99999 18.833C11.6481 18.833 13.2592 18.3443 14.6296 17.4286C15.9999 16.513 17.068 15.2116 17.6987 13.6889C18.3294 12.1662 18.4944 10.4908 18.1729 8.87431C17.8513 7.25786 17.0577 5.77307 15.8923 4.60768C14.7269 3.44228 13.2421 2.64864 11.6257 2.32711C10.0092 2.00558 8.33375 2.1706 6.81109 2.80131C5.28843 3.43201 3.987 4.50007 3.07136 5.87043C2.15571 7.24078 1.66699 8.85188 1.66699 10.5C1.66699 12.018 2.07299 13.442 2.78199 14.667L2.08299 18.417L5.83299 17.718C7.09936 18.4506 8.53697 18.8353 9.99999 18.833Z" stroke="#00BB8F" stroke-width="1.25" stroke-linecap="round" stroke-linejoin="round"/>
</svg>
